<svg width="0" height="0" class="hidden">
  <symbol fill="none" xmlns="http://www.w3.org/2000/svg" viewBox="0 0 13 14" id="shoppingBag">
    <path fill="currentColor" d="M11.265 3.82a.11.11 0 00-.109-.101H9.734a.547.547 0 01-.547-.547A3.175 3.175 0 006.016 0a3.175 3.175 0 00-3.172 3.172.547.547 0 01-.547.547H.875a.11.11 0 00-.11.1L0 13.883A.11.11 0 00.11 14h11.812a.11.11 0 00.109-.118L11.265 3.82zM3.72 3.172A2.3 2.3 0 016.016.875a2.3 2.3 0 012.296 2.297.547.547 0 01-.546.547h-3.5a.547.547 0 01-.547-.547zm-.438 3.61a1.096 1.096 0 01-1.094-1.095c0-.093.01-.184.03-.272.108-.47.627-.209.627.272a.438.438 0 00.875 0c0-.48.518-.74.626-.272.02.088.03.18.03.272 0 .604-.49 1.094-1.094 1.094zm5.469 0a1.096 1.096 0 01-1.094-1.095c0-.093.01-.184.03-.272.107-.47.626-.209.626.272a.438.438 0 00.875 0c0-.48.519-.74.626-.272.02.088.03.18.03.272 0 .604-.49 1.094-1.093 1.094z"></path>
  </symbol>
  <symbol fill="none" xmlns="http://www.w3.org/2000/svg" viewBox="0 0 36 12" id="arrow">
    <path fill="currentColor" d="M1 9.038a1 1 0 100 2v-2zm32 1v1h2.414l-1.707-1.707-.707.707zM24.707.331a1 1 0 10-1.414 1.414L24.707.331zM1 11.038h32v-2H1v2zm32.707-1.707l-9-9-1.414 1.414 9 9 1.414-1.414z"></path>
  </symbol>
  <symbol fill="none" xmlns="http://www.w3.org/2000/svg" viewBox="0 0 27 27" id="loadMore">
    <path fill="currentColor" d="M13.5 25a1 1 0 100 2v-2zm0-23a1 1 0 100-2v2zm8.088 2.423l.276-.962-3.693-1.058 2.708 2.725.71-.705zM5.412 22.577l-.276.962 3.693 1.058-2.708-2.725-.71.705zM25.724 6.65a1 1 0 10.552-1.923l-.552 1.923zM1.276 20.35a1 1 0 00-.552 1.923l.552-1.923zm22.989-6.85c0 6.41-4.876 11.5-10.765 11.5v2c7.106 0 12.765-6.102 12.765-13.5h-2zm-21.53 0C2.735 7.09 7.611 2 13.5 2V0C6.394 0 .735 6.102.735 13.5h2zM20.88 5.128c2.079 2.092 3.386 5.063 3.386 8.372h2c0-3.84-1.518-7.318-3.968-9.782l-1.418 1.41zM6.12 21.872C4.042 19.78 2.735 16.81 2.735 13.5h-2c0 3.84 1.518 7.318 3.967 9.782l1.42-1.41zM21.313 5.384l4.411 1.265.552-1.923-4.412-1.265-.551 1.923zM5.687 21.616l-4.411-1.265-.552 1.923 4.412 1.265.551-1.923z"></path>
  </symbol>
</svg>